<mxfile host="app.diagrams.net" modified="2021-12-21T06:00:14.291Z" agent="5.0 (Windows NT 10.0; Win64; x64) AppleWebKit/537.36 (KHTML, like Gecko) Chrome/96.0.4664.110 Safari/537.36" etag="l_hs8rLkxufoZD6rHu5u" version="15.9.4" type="github">
  <diagram id="988Jyh3Zck4YBprr0pmO" name="Page-2">
    <mxGraphModel dx="1886" dy="818" grid="1" gridSize="10" guides="1" tooltips="1" connect="1" arrows="1" fold="1" page="1" pageScale="1" pageWidth="1200" pageHeight="1600" math="0" shadow="0">
      <root>
        <mxCell id="YI5SaajT95HmOETAB5MB-0" />
        <mxCell id="YI5SaajT95HmOETAB5MB-1" parent="YI5SaajT95HmOETAB5MB-0" />
      </root>
    </mxGraphModel>
  </diagram>
</mxfile>
